# xmcd CD database file
#
# Track frame offsets:
#	150
#	17256
#	33816
#	52010
#	85364
#	107568
#	124025
#	141266
#	163381
#	187590
#
# Disc length: 2841 seconds
#
# Revision: 3
# Processed by: cddbd v1.5.1PL0 Copyright (c) Steve Scherf et al.
# Submitted via: CDex 1.51
#
DISCID=780b170a
DTITLE=Granada - Takes A Lot Of Walking
DYEAR=2002
DGENRE=Country
TTITLE0=Time To Pass
TTITLE1=Everyplace We Went
TTITLE2=To Die For
TTITLE3=The Tortoise
TTITLE4=Going Back To The City
TTITLE5=Calm As Calm Can Be
TTITLE6=Once Long Ago
TTITLE7=Sleepy Eyes
TTITLE8=Salmon Country
TTITLE9=Go Go Go
EXTD=YEAR: 2002
EXTT0=
EXTT1=
EXTT2=
EXTT3=
EXTT4=
EXTT5=
EXTT6=
EXTT7=
EXTT8=
EXTT9=
PLAYORDER=
